<svg width="1200" height="800" viewBox="0 0 1200 800" xmlns="http://www.w3.org/2000/svg">
  <defs>
    <linearGradient id="grad3" x1="0%" y1="0%" x2="100%" y2="100%">
      <stop offset="0%" stop-color="#1a273f"/>
      <stop offset="100%" stop-color="#092131"/>
    </linearGradient>
    <radialGradient id="glow3" cx="70%" cy="25%" r="55%">
      <stop offset="0%" stop-color="#8ff2ff" stop-opacity="0.76"/>
      <stop offset="100%" stop-color="#081821" stop-opacity="0"/>
    </radialGradient>
  </defs>
  <rect width="1200" height="800" fill="url(#grad3)"/>
  <circle cx="860" cy="190" r="160" fill="url(#glow3)"/>
  <path d="M200 740C320 620 460 580 620 520C760 470 960 540 1100 680V820H200V740Z" fill="#1f4c79" opacity="0.6"/>
  <g stroke="#aeeaff" stroke-width="18" fill="none" stroke-linecap="round" opacity="0.9">
    <path d="M300 200C340 140 420 100 520 110C620 120 690 180 730 260"/>
    <path d="M340 320C400 280 500 270 560 305C620 340 640 420 610 500"/>
  </g>
  <circle cx="140" cy="560" r="30" fill="#91d9ff" opacity="0.7"/>
  <circle cx="1010" cy="560" r="28" fill="#bee9ff" opacity="0.65"/>
</svg>